<svg width="70" height="73" fill="none" xmlns="http://www.w3.org/2000/svg"><ellipse cx="1.892" cy="1.969" rx="1.892" ry="1.969" fill="#292929"/><ellipse cx="1.892" cy="29.539" rx="1.892" ry="1.969" fill="#292929"/><ellipse cx="1.892" cy="57.104" rx="1.892" ry="1.969" fill="#292929"/><ellipse cx="1.892" cy="15.752" rx="1.892" ry="1.969" fill="#292929"/><ellipse cx="1.892" cy="43.32" rx="1.892" ry="1.969" fill="#292929"/><ellipse cx="1.892" cy="70.891" rx="1.892" ry="1.969" fill="#292929"/><ellipse cx="15.134" cy="1.969" rx="1.892" ry="1.969" fill="#292929"/><ellipse cx="15.134" cy="29.535" rx="1.892" ry="1.969" fill="#292929"/><ellipse cx="15.134" cy="57.108" rx="1.892" ry="1.969" fill="#292929"/><ellipse cx="15.134" cy="15.752" rx="1.892" ry="1.969" fill="#292929"/><ellipse cx="15.134" cy="43.321" rx="1.892" ry="1.969" fill="#292929"/><ellipse cx="15.134" cy="70.891" rx="1.892" ry="1.969" fill="#292929"/><ellipse cx="28.38" cy="1.969" rx="1.892" ry="1.969" fill="#292929"/><ellipse cx="28.38" cy="29.535" rx="1.892" ry="1.969" fill="#292929"/><ellipse cx="28.38" cy="57.108" rx="1.892" ry="1.969" fill="#292929"/><ellipse cx="28.38" cy="15.752" rx="1.892" ry="1.969" fill="#292929"/><ellipse cx="28.38" cy="43.321" rx="1.892" ry="1.969" fill="#292929"/><ellipse cx="28.38" cy="70.891" rx="1.892" ry="1.969" fill="#292929"/><ellipse cx="41.622" cy="1.969" rx="1.892" ry="1.969" fill="#292929"/><ellipse cx="41.622" cy="29.539" rx="1.892" ry="1.969" fill="#292929"/><ellipse cx="41.622" cy="57.104" rx="1.892" ry="1.969" fill="#292929"/><ellipse cx="41.622" cy="15.752" rx="1.892" ry="1.969" fill="#292929"/><ellipse cx="41.622" cy="43.32" rx="1.892" ry="1.969" fill="#292929"/><ellipse cx="41.622" cy="70.891" rx="1.892" ry="1.969" fill="#292929"/><ellipse cx="54.865" cy="1.969" rx="1.892" ry="1.969" fill="#292929"/><ellipse cx="54.865" cy="29.539" rx="1.892" ry="1.969" fill="#292929"/><ellipse cx="54.865" cy="57.104" rx="1.892" ry="1.969" fill="#292929"/><ellipse cx="54.865" cy="15.752" rx="1.892" ry="1.969" fill="#292929"/><ellipse cx="54.865" cy="43.32" rx="1.892" ry="1.969" fill="#292929"/><ellipse cx="54.865" cy="70.891" rx="1.892" ry="1.969" fill="#292929"/><ellipse cx="68.107" cy="1.969" rx="1.892" ry="1.969" fill="#292929"/><ellipse cx="68.107" cy="29.535" rx="1.892" ry="1.969" fill="#292929"/><ellipse cx="68.107" cy="57.108" rx="1.892" ry="1.969" fill="#292929"/><ellipse cx="68.107" cy="15.752" rx="1.892" ry="1.969" fill="#292929"/><ellipse cx="68.107" cy="43.321" rx="1.892" ry="1.969" fill="#292929"/><ellipse cx="68.107" cy="70.891" rx="1.892" ry="1.969" fill="#292929"/></svg>