<svg width="644" height="199" fill="none" xmlns="http://www.w3.org/2000/svg"><path d="M43.951 158.101h63.144v36.116H.5V4.783h106.595v36.116H43.451v37.83h60.505v36.117H43.451v43.255h.5zM239.666 4.783l74.666 189.434h-44.59l-14.145-35.658-.125-.316h-72.597l-.126.313-14.429 35.661h-44.586L200.103 4.783h39.563zm-44.08 120.096l-.249.674h48.524l-.246-.672-23.402-63.954-.467-1.275-.472 1.273-23.688 63.954zm187.566-58.275l.013.013.015.011 2.854 2.285.027.02.028.018c.977.586 2.33 1.262 4.05 2.027a106.23 106.23 0 014.261 1.989l.031.015.034.012c1.126.375 3.111 1.131 5.966 2.274l.014.005.013.005 6.831 2.277.019.007 14.25 5.417c11.963 4.56 20.547 9.384 25.802 14.454l.005.005c9.206 8.645 13.827 20.306 13.827 35.038 0 19.697-5.582 35.264-16.698 46.762l-.002.002c-12.246 12.816-30.077 19.26-53.579 19.26-14.399 0-26.877-2.653-37.449-7.941-9.351-4.678-18.531-11.49-27.537-20.447l22.237-30.588c6.324 6.282 12.115 11.027 17.374 14.221 7.497 4.615 15.578 6.926 24.234 6.926 8.273 0 15.054-2.216 20.3-6.685 4.69-3.911 7.027-9.196 7.027-15.799 0-5.488-2.262-10.19-6.736-14.082l-.008-.007c-3.501-2.918-11.002-6.465-22.409-10.649l-.009-.003-15.693-5.424h-.002c-12.336-4.367-21.095-9.378-26.342-15.002l-.003-.003c-7.5-7.878-11.278-18.78-11.278-32.774 0-17.205 5.476-31.35 16.41-42.477C362.33 6.273 377.886.5 397.763.5c20.479 0 39.088 6.155 55.842 18.473l-19.137 31.075c-10.025-8.934-20.645-13.432-31.854-13.432-8.447 0-14.788 2.209-18.912 6.721-3.327 3.333-4.99 7.456-4.99 12.337 0 4.498 1.471 8.158 4.44 10.93zm192.072 39.32v88.293h-42.951v-88.445l-.085-.127L464.5 4.783h50.733l38.096 58.872.419.648.42-.648 38.096-58.872h50.733l-67.688 100.862-.085.127v.152z" stroke="#4F4E58"/></svg>