<svg width="44" height="44" fill="none" xmlns="http://www.w3.org/2000/svg"><g clip-path="url(#clip0)"><path d="M2.75 2.994C-.709 6.585 0 10.4 0 21.99c0 9.625-1.68 19.274 7.11 21.545 2.744.706 27.061.706 29.802-.004 3.66-.944 6.636-3.912 7.044-9.087.056-.723.056-24.173-.002-24.91-.433-5.513-3.827-8.69-8.298-9.333C34.631.053 34.426.009 29.168 0 10.518.01 6.429-.821 2.749 2.994z" fill="url(#paint0_linear)"/><path d="M21.999 5.755c-6.657 0-12.979-.592-15.393 5.604-.997 2.56-.853 5.884-.853 10.643 0 4.176-.133 8.101.853 10.64 2.409 6.2 8.782 5.607 15.389 5.607 6.374 0 12.947.664 15.39-5.606 1-2.585.853-5.86.853-10.641 0-6.347.35-10.445-2.728-13.52-3.116-3.118-7.331-2.727-13.519-2.727H22zm-1.456 2.928C34.429 8.66 36.196 7.117 35.22 28.562c-.347 7.584-6.122 6.752-13.22 6.752-12.944 0-13.316-.37-13.316-13.32C8.685 8.896 9.712 8.69 20.543 8.68v.004zM30.67 11.38a1.95 1.95 0 100 3.898 1.95 1.95 0 000-3.898zM22 13.658a8.343 8.343 0 000 16.686 8.34 8.34 0 008.34-8.342A8.341 8.341 0 0022 13.658zm0 2.928c7.159 0 7.168 10.832 0 10.832-7.158 0-7.169-10.832 0-10.832z" fill="#fff"/></g><defs><linearGradient id="paint0_linear" x1="2.834" y1="41.19" x2="43.727" y2="5.797" gradientUnits="userSpaceOnUse"><stop stop-color="#FD5"/><stop offset=".5" stop-color="#FF543E"/><stop offset="1" stop-color="#C837AB"/></linearGradient><clipPath id="clip0"><path fill="#fff" d="M0 0h44v44H0z"/></clipPath></defs></svg>