<svg width="20" height="20" fill="none" xmlns="http://www.w3.org/2000/svg"><path fill-rule="evenodd" clip-rule="evenodd" d="M14.117 2.5a4.214 4.214 0 014.218 4.208v6.584a4.215 4.215 0 01-4.218 4.208H5.885a4.214 4.214 0 01-4.217-4.208V6.708A4.209 4.209 0 015.885 2.5h8.232zm1.326 5.45l.067-.067a.644.644 0 00-.01-.833.7.7 0 00-.44-.217.633.633 0 00-.468.167l-3.757 3c-.484.4-1.176.4-1.667 0l-3.75-3a.634.634 0 00-.833.058.637.637 0 00-.06.834l.11.108 3.791 2.958a2.62 2.62 0 003.258 0l3.759-3.008z" fill="#F5D101"/></svg>