<svg width="951" height="199" fill="none" xmlns="http://www.w3.org/2000/svg"><mask id="a" fill="#fff"><path d="M-561.405 4.283v37.116h-63.644v36.83h60.505v37.117h-60.505v42.255h63.644v37.116H-669V4.283h107.595zm161.808 190.434l-14.27-35.974h-71.921l-14.555 35.974h-45.664l76.772-190.434h40.242l75.059 190.434h-45.663zm-73.348-69.664h47.091l-23.403-63.954-23.688 63.954zm258.217-106.21l-19.693 31.978c-10.084-9.137-20.739-13.705-31.965-13.705-8.371 0-14.555 2.19-18.55 6.567-3.235 3.236-4.852 7.233-4.852 11.991 0 4.378 1.427 7.9 4.281 10.564l2.854 2.284c.951.571 2.283 1.237 3.995 1.999 1.713.761 3.14 1.427 4.281 1.998 1.142.381 3.14 1.142 5.994 2.284l6.849 2.285 14.27 5.424c11.987 4.568 20.644 9.422 25.971 14.561 9.323 8.756 13.985 20.557 13.985 35.403 0 19.796-5.613 35.499-16.839 47.109-12.367 12.943-30.347 19.415-53.94 19.415-14.46 0-27.018-2.665-37.672-7.994-9.514-4.759-18.837-11.706-27.969-20.842l22.831-31.406c6.469 6.471 12.368 11.325 17.695 14.561 7.42 4.568 15.412 6.852 23.974 6.852 8.181 0 14.84-2.189 19.977-6.567 4.567-3.807 6.85-8.946 6.85-15.417 0-5.33-2.188-9.898-6.564-13.705-3.425-2.855-10.845-6.376-22.261-10.564l-15.697-5.424c-12.367-4.378-21.215-9.422-26.542-15.132-7.611-7.995-11.416-19.034-11.416-33.12 0-17.32 5.518-31.596 16.553-42.826C-306.912 5.806-291.215 0-271.237 0c20.739 0 39.575 6.281 56.509 18.844zm77.501 175.874v-88.793l-68.21-101.641h51.942l38.243 59.1 38.244-59.1h51.942l-68.21 101.641v88.793h-43.951zm317.43-175.873L160.51 50.82c-10.084-9.137-20.739-13.705-31.965-13.705-8.371 0-14.555 2.19-18.55 6.567-3.235 3.236-4.852 7.233-4.852 11.991 0 4.378 1.427 7.9 4.281 10.564l2.854 2.284c.951.571 2.283 1.237 3.995 1.999 1.713.761 3.14 1.427 4.281 1.998 1.142.381 3.14 1.142 5.994 2.284l6.849 2.285 14.27 5.424c11.987 4.568 20.644 9.422 25.971 14.561 9.323 8.756 13.985 20.557 13.985 35.403 0 19.796-5.613 35.499-16.839 47.109C158.417 192.528 140.437 199 116.844 199c-14.46 0-27.018-2.665-37.672-7.994-9.514-4.759-18.837-11.706-27.97-20.842l22.832-31.406c6.47 6.471 12.368 11.325 17.695 14.561 7.42 4.568 15.412 6.852 23.974 6.852 8.181 0 14.84-2.189 19.977-6.567 4.567-3.807 6.85-8.946 6.85-15.417 0-5.33-2.188-9.898-6.564-13.705-3.425-2.855-10.845-6.376-22.261-10.564l-15.697-5.424c-12.367-4.378-21.215-9.422-26.542-15.132-7.61-7.995-11.416-19.034-11.416-33.12 0-17.32 5.518-31.596 16.553-42.826C88.019 5.806 103.716 0 123.694 0c20.739 0 39.575 6.281 56.509 18.844zm147.209 22.555H286.03v153.318h-43.952V41.399h-41.383V4.283h126.717v37.116zM464.68 194.717l-14.27-35.974h-71.92l-14.556 35.974h-45.663L395.043 4.283h40.241l75.06 190.434H464.68zm-73.347-69.664h47.09l-23.402-63.954-23.688 63.954zm184.298 69.664h-43.952V4.283h38.244l103.314 122.769V4.282h43.951v190.435h-38.243L575.631 71.377v123.34zM758.827 4.283h60.219c31.965 0 56.985 8.755 75.06 26.266 18.266 17.702 27.399 40.448 27.399 68.237 0 27.599-8.658 50.06-25.972 67.38-18.836 19.034-43.856 28.551-75.059 28.551h-61.647V4.283zm43.952 37.116V157.6h11.701c18.646 0 33.106-4.282 43.381-12.848 12.367-10.278 18.551-25.6 18.551-45.967 0-16.94-5.233-30.644-15.697-41.113-10.846-10.85-26.257-16.274-46.235-16.274h-11.701zM1181.78 4.283v112.776c0 25.696-7.04 45.776-21.12 60.242-14.08 14.466-33.87 21.699-59.36 21.699-25.5 0-45.29-7.233-59.37-21.699-14.08-14.466-21.12-34.546-21.12-60.242V4.283h43.96v111.634c0 14.466 3.33 25.125 9.98 31.977 6.28 6.662 15.13 9.993 26.55 9.993 11.41 0 20.26-3.331 26.54-9.993 6.66-6.852 9.99-17.511 9.99-31.977V4.283h43.95zm41.66 0h67.06c21.5 0 38.15 5.234 49.95 15.703 12.37 10.849 18.55 26.266 18.55 46.252 0 18.653-5.42 33.595-16.27 44.825-11.03 11.23-27.21 16.845-48.52 16.845h-26.82v66.809h-43.95V4.283zm43.95 35.974v51.677h15.69c10.85 0 18.75-2.38 23.69-7.138 4.76-4.758 7.14-11.04 7.14-18.843 0-7.995-2.38-14.18-7.14-18.559-4.94-4.758-13.13-7.137-24.54-7.137h-14.84z"/></mask><path d="M-561.405 4.283v37.116h-63.644v36.83h60.505v37.117h-60.505v42.255h63.644v37.116H-669V4.283h107.595zm161.808 190.434l-14.27-35.974h-71.921l-14.555 35.974h-45.664l76.772-190.434h40.242l75.059 190.434h-45.663zm-73.348-69.664h47.091l-23.403-63.954-23.688 63.954zm258.217-106.21l-19.693 31.978c-10.084-9.137-20.739-13.705-31.965-13.705-8.371 0-14.555 2.19-18.55 6.567-3.235 3.236-4.852 7.233-4.852 11.991 0 4.378 1.427 7.9 4.281 10.564l2.854 2.284c.951.571 2.283 1.237 3.995 1.999 1.713.761 3.14 1.427 4.281 1.998 1.142.381 3.14 1.142 5.994 2.284l6.849 2.285 14.27 5.424c11.987 4.568 20.644 9.422 25.971 14.561 9.323 8.756 13.985 20.557 13.985 35.403 0 19.796-5.613 35.499-16.839 47.109-12.367 12.943-30.347 19.415-53.94 19.415-14.46 0-27.018-2.665-37.672-7.994-9.514-4.759-18.837-11.706-27.969-20.842l22.831-31.406c6.469 6.471 12.368 11.325 17.695 14.561 7.42 4.568 15.412 6.852 23.974 6.852 8.181 0 14.84-2.189 19.977-6.567 4.567-3.807 6.85-8.946 6.85-15.417 0-5.33-2.188-9.898-6.564-13.705-3.425-2.855-10.845-6.376-22.261-10.564l-15.697-5.424c-12.367-4.378-21.215-9.422-26.542-15.132-7.611-7.995-11.416-19.034-11.416-33.12 0-17.32 5.518-31.596 16.553-42.826C-306.912 5.806-291.215 0-271.237 0c20.739 0 39.575 6.281 56.509 18.844zm77.501 175.874v-88.793l-68.21-101.641h51.942l38.243 59.1 38.244-59.1h51.942l-68.21 101.641v88.793h-43.951zm317.43-175.873L160.51 50.82c-10.084-9.137-20.739-13.705-31.965-13.705-8.371 0-14.555 2.19-18.55 6.567-3.235 3.236-4.852 7.233-4.852 11.991 0 4.378 1.427 7.9 4.281 10.564l2.854 2.284c.951.571 2.283 1.237 3.995 1.999 1.713.761 3.14 1.427 4.281 1.998 1.142.381 3.14 1.142 5.994 2.284l6.849 2.285 14.27 5.424c11.987 4.568 20.644 9.422 25.971 14.561 9.323 8.756 13.985 20.557 13.985 35.403 0 19.796-5.613 35.499-16.839 47.109C158.417 192.528 140.437 199 116.844 199c-14.46 0-27.018-2.665-37.672-7.994-9.514-4.759-18.837-11.706-27.97-20.842l22.832-31.406c6.47 6.471 12.368 11.325 17.695 14.561 7.42 4.568 15.412 6.852 23.974 6.852 8.181 0 14.84-2.189 19.977-6.567 4.567-3.807 6.85-8.946 6.85-15.417 0-5.33-2.188-9.898-6.564-13.705-3.425-2.855-10.845-6.376-22.261-10.564l-15.697-5.424c-12.367-4.378-21.215-9.422-26.542-15.132-7.61-7.995-11.416-19.034-11.416-33.12 0-17.32 5.518-31.596 16.553-42.826C88.019 5.806 103.716 0 123.694 0c20.739 0 39.575 6.281 56.509 18.844zm147.209 22.555H286.03v153.318h-43.952V41.399h-41.383V4.283h126.717v37.116zM464.68 194.717l-14.27-35.974h-71.92l-14.556 35.974h-45.663L395.043 4.283h40.241l75.06 190.434H464.68zm-73.347-69.664h47.09l-23.402-63.954-23.688 63.954zm184.298 69.664h-43.952V4.283h38.244l103.314 122.769V4.282h43.951v190.435h-38.243L575.631 71.377v123.34zM758.827 4.283h60.219c31.965 0 56.985 8.755 75.06 26.266 18.266 17.702 27.399 40.448 27.399 68.237 0 27.599-8.658 50.06-25.972 67.38-18.836 19.034-43.856 28.551-75.059 28.551h-61.647V4.283zm43.952 37.116V157.6h11.701c18.646 0 33.106-4.282 43.381-12.848 12.367-10.278 18.551-25.6 18.551-45.967 0-16.94-5.233-30.644-15.697-41.113-10.846-10.85-26.257-16.274-46.235-16.274h-11.701zM1181.78 4.283v112.776c0 25.696-7.04 45.776-21.12 60.242-14.08 14.466-33.87 21.699-59.36 21.699-25.5 0-45.29-7.233-59.37-21.699-14.08-14.466-21.12-34.546-21.12-60.242V4.283h43.96v111.634c0 14.466 3.33 25.125 9.98 31.977 6.28 6.662 15.13 9.993 26.55 9.993 11.41 0 20.26-3.331 26.54-9.993 6.66-6.852 9.99-17.511 9.99-31.977V4.283h43.95zm41.66 0h67.06c21.5 0 38.15 5.234 49.95 15.703 12.37 10.849 18.55 26.266 18.55 46.252 0 18.653-5.42 33.595-16.27 44.825-11.03 11.23-27.21 16.845-48.52 16.845h-26.82v66.809h-43.95V4.283zm43.95 35.974v51.677h15.69c10.85 0 18.75-2.38 23.69-7.138 4.76-4.758 7.14-11.04 7.14-18.843 0-7.995-2.38-14.18-7.14-18.559-4.94-4.758-13.13-7.137-24.54-7.137h-14.84z" stroke="#4F4E58" stroke-width="2" mask="url(#a)"/></svg>