<svg width="44" height="44" fill="none" xmlns="http://www.w3.org/2000/svg"><path d="M22.006 0h-.012C9.864 0 0 9.867 0 22c0 4.813 1.551 9.273 4.188 12.895l-2.741 8.173 8.456-2.703A21.81 21.81 0 0022.006 44C34.136 44 44 34.13 44 22S34.136 0 22.006 0z" fill="#4CAF50"/><path d="M34.804 31.067c-.531 1.498-2.638 2.741-4.318 3.104-1.15.245-2.65.44-7.705-1.655-6.466-2.679-10.63-9.248-10.954-9.675-.31-.426-2.612-3.479-2.612-6.636 0-3.156 1.603-4.694 2.25-5.354.53-.542 1.407-.789 2.249-.789.272 0 .517.014.737.025.646.027.97.066 1.397 1.086.53 1.279 1.823 4.436 1.977 4.76.157.325.314.765.094 1.191-.207.44-.388.635-.713 1.01-.324.373-.632.66-.957 1.06-.297.35-.632.724-.258 1.37.374.633 1.666 2.742 3.57 4.436 2.455 2.186 4.446 2.885 5.158 3.182.531.22 1.164.168 1.551-.245.493-.53 1.1-1.41 1.72-2.277.44-.622.995-.698 1.578-.479.594.207 3.737 1.76 4.383 2.082.646.325 1.073.479 1.23.751.153.272.153 1.551-.377 3.053z" fill="#FAFAFA"/></svg>